<svg id="Capa_1" enable-background="new 0 0 512 512" height="512" viewBox="0 0 512 512" width="512" xmlns="http://www.w3.org/2000/svg" xmlns:xlink="http://www.w3.org/1999/xlink"><linearGradient id="lg1"><stop offset="0" stop-color="#e27a4e"/><stop offset=".9812" stop-color="#dc455b"/></linearGradient><linearGradient id="SVGID_1_" gradientUnits="userSpaceOnUse" x1="74.981" x2="437.019" xlink:href="#lg1" y1="74.981" y2="437.019"/><linearGradient id="SVGID_2_" gradientUnits="userSpaceOnUse" x1="105.003" x2="407.01" y1="256" y2="256"><stop offset="0" stop-color="#f1f6ff"/><stop offset=".9846" stop-color="#dfe5f2"/></linearGradient><linearGradient id="SVGID_3_" gradientUnits="userSpaceOnUse" x1="194.069" x2="317.936" xlink:href="#lg1" y1="175.781" y2="175.781"/><linearGradient id="SVGID_4_" gradientUnits="userSpaceOnUse" x1="212.655" x2="299.35" y1="175.781" y2="175.781"><stop offset="0" stop-color="#f1f6ff"/><stop offset="1" stop-color="#c7cdde"/></linearGradient><linearGradient id="SVGID_5_" gradientUnits="userSpaceOnUse" x1="247.155" x2="264.85" y1="184.629" y2="184.629"><stop offset="0" stop-color="#5a5f64"/><stop offset="1" stop-color="#4b5055"/></linearGradient><linearGradient id="SVGID_6_" gradientUnits="userSpaceOnUse" x1="247.155" x2="264.85" y1="300.238" y2="300.238"><stop offset="0" stop-color="#dfe5f2"/><stop offset="1" stop-color="#c7cdde"/></linearGradient><g><circle cx="256" cy="256" fill="url(#SVGID_1_)" r="256"/><g><g><path d="m407.003 149.238c0-24.39-19.842-44.238-44.238-44.238h-213.524c-24.39 0-44.238 19.848-44.238 44.238 0 .478 0 1.368 17.849 217.239 1.91 22.922 21.127 40.523 44.084 40.523h178.133c23.004 0 42.18-17.648 44.085-40.528 18.763-227.072 17.849-213.771 17.849-217.234z" fill="url(#SVGID_2_)"/></g><g><path d="m256.003 140.391c-34.152 0-61.934 27.782-61.934 61.934v8.848h123.867v-8.848c0-34.153-27.781-61.934-61.933-61.934z" fill="url(#SVGID_3_)"/><path d="m299.35 193.477h-34.5l-8.842-9.833-.006.006-8.848 9.827h-34.5c4.111-20.167 21.983-35.391 43.348-35.391s39.237 15.224 43.348 35.391z" fill="url(#SVGID_4_)"/></g><g><path d="m247.155 175.781h17.695v17.695h-17.695z" fill="url(#SVGID_5_)"/></g><g><path d="m247.155 246.562h17.695v107.352h-17.695z" fill="url(#SVGID_6_)"/></g></g></g></svg>